<?xml version="1.0" encoding="UTF-8"?><svg xmlns="http://www.w3.org/2000/svg" xmlns:xlink="http://www.w3.org/1999/xlink" fill-opacity="1" color-rendering="auto" color-interpolation="auto" text-rendering="auto" stroke="black" stroke-linecap="square" width="692" stroke-miterlimit="10" shape-rendering="auto" stroke-opacity="1" fill="black" stroke-dasharray="none" font-weight="normal" stroke-width="1" height="406" font-family="'Dialog'" font-style="normal" stroke-linejoin="miter" font-size="12px" stroke-dashoffset="0" image-rendering="auto">
  <!--Generated by ySVG 2.5-->
  <defs id="genericDefs"/>
  <g>
    <defs id="defs1">
      <clipPath clipPathUnits="userSpaceOnUse" id="clipPath1">
        <path d="M0 0 L692 0 L692 406 L0 406 L0 0 Z"/>
      </clipPath>
      <clipPath clipPathUnits="userSpaceOnUse" id="clipPath2">
        <path d="M60 442 L752 442 L752 848 L60 848 L60 442 Z"/>
      </clipPath>
    </defs>
    <g fill="white" text-rendering="geometricPrecision" shape-rendering="geometricPrecision" transform="translate(-60,-442)" stroke="white">
      <rect x="60" width="692" height="406" y="442" clip-path="url(#clipPath2)" stroke="none"/>
    </g>
    <g stroke-linecap="butt" transform="matrix(1,0,0,1,-60,-442)" fill="rgb(153,204,0)" text-rendering="geometricPrecision" shape-rendering="geometricPrecision" stroke-dasharray="6,2" stroke="rgb(153,204,0)" stroke-miterlimit="1.45">
      <rect x="65.8369" y="515.76" clip-path="url(#clipPath2)" fill="none" width="440.2208" rx="4" ry="4" height="232.88"/>
      <rect x="296.3009" y="534.24" clip-path="url(#clipPath2)" fill="none" width="455.5808" rx="4" ry="4" height="156.72" stroke="aqua"/>
    </g>
    <g fill="rgb(204,153,255)" text-rendering="geometricPrecision" shape-rendering="geometricPrecision" transform="matrix(1,0,0,1,-60,-442)" stroke="rgb(204,153,255)">
      <rect x="325.0549" y="588.4844" clip-path="url(#clipPath2)" width="153.7871" rx="4" ry="4" height="30" stroke="none"/>
    </g>
    <g text-rendering="geometricPrecision" stroke-miterlimit="1.45" shape-rendering="geometricPrecision" font-family="sans-serif" transform="matrix(1,0,0,1,-60,-442)" stroke-linecap="butt">
      <text x="332.0549" xml:space="preserve" y="607.6387" clip-path="url(#clipPath2)" stroke="none">Identify SKOS concepts</text>
      <rect x="325.0549" y="588.4844" clip-path="url(#clipPath2)" fill="none" width="153.7871" rx="4" ry="4" height="30"/>
    </g>
    <g fill="aqua" text-rendering="geometricPrecision" shape-rendering="geometricPrecision" transform="matrix(1,0,0,1,-60,-442)" stroke="aqua">
      <rect x="522.2105" y="650.32" clip-path="url(#clipPath2)" width="215.5391" rx="4" ry="4" height="30" stroke="none"/>
    </g>
    <g text-rendering="geometricPrecision" stroke-miterlimit="1.45" shape-rendering="geometricPrecision" font-family="sans-serif" transform="matrix(1,0,0,1,-60,-442)" stroke-linecap="butt">
      <text x="529.2104" xml:space="preserve" y="669.4743" clip-path="url(#clipPath2)" stroke="none">Construct SKOS broader relations</text>
      <rect x="522.2105" y="650.32" clip-path="url(#clipPath2)" fill="none" width="215.5391" rx="4" ry="4" height="30"/>
    </g>
    <g fill="yellow" text-rendering="geometricPrecision" shape-rendering="geometricPrecision" transform="matrix(1,0,0,1,-60,-442)" stroke="yellow">
      <rect x="340.6523" y="818" clip-path="url(#clipPath2)" width="111.0723" rx="4" ry="4" height="30" stroke="none"/>
    </g>
    <g text-rendering="geometricPrecision" stroke-miterlimit="1.45" shape-rendering="geometricPrecision" font-family="sans-serif" transform="matrix(1,0,0,1,-60,-442)" stroke-linecap="butt">
      <text x="347.6523" xml:space="preserve" y="837.1543" clip-path="url(#clipPath2)" stroke="none">Return skosified</text>
      <rect x="340.6523" y="818" clip-path="url(#clipPath2)" fill="none" width="111.0723" rx="4" ry="4" height="30"/>
    </g>
    <g fill="yellow" text-rendering="geometricPrecision" shape-rendering="geometricPrecision" transform="matrix(1,0,0,1,-60,-442)" stroke="yellow">
      <rect x="322.6262" y="442.68" clip-path="url(#clipPath2)" width="158.6445" rx="4" ry="4" height="30" stroke="none"/>
    </g>
    <g text-rendering="geometricPrecision" stroke-miterlimit="1.45" shape-rendering="geometricPrecision" font-family="sans-serif" transform="matrix(1,0,0,1,-60,-442)" stroke-linecap="butt">
      <text x="329.6262" xml:space="preserve" y="461.8343" clip-path="url(#clipPath2)" stroke="none">Construct example data</text>
      <rect x="322.6262" y="442.68" clip-path="url(#clipPath2)" fill="none" width="158.6445" rx="4" ry="4" height="30"/>
    </g>
    <g fill="rgb(153,204,0)" text-rendering="geometricPrecision" shape-rendering="geometricPrecision" transform="matrix(1,0,0,1,-60,-442)" stroke="rgb(153,204,0)">
      <rect x="73.2451" y="629" clip-path="url(#clipPath2)" width="189.2949" rx="4" ry="4" height="30" stroke="none"/>
    </g>
    <g text-rendering="geometricPrecision" stroke-miterlimit="1.45" shape-rendering="geometricPrecision" font-family="sans-serif" transform="matrix(1,0,0,1,-60,-442)" stroke-linecap="butt">
      <text x="80.2451" xml:space="preserve" y="648.1543" clip-path="url(#clipPath2)" stroke="none">Bind preferred label property</text>
      <rect x="73.2451" y="629" clip-path="url(#clipPath2)" fill="none" width="189.2949" rx="4" ry="4" height="30"/>
    </g>
    <g fill="rgb(153,204,0)" text-rendering="geometricPrecision" shape-rendering="geometricPrecision" transform="matrix(1,0,0,1,-60,-442)" stroke="rgb(153,204,0)">
      <rect x="216.0498" y="709" clip-path="url(#clipPath2)" width="162.875" rx="4" ry="4" height="30" stroke="none"/>
    </g>
    <g text-rendering="geometricPrecision" stroke-miterlimit="1.45" shape-rendering="geometricPrecision" font-family="sans-serif" transform="matrix(1,0,0,1,-60,-442)" stroke-linecap="butt">
      <text x="223.0498" xml:space="preserve" y="728.1543" clip-path="url(#clipPath2)" stroke="none">Construct concept labels</text>
      <rect x="216.0498" y="709" clip-path="url(#clipPath2)" fill="none" width="162.875" rx="4" ry="4" height="30"/>
      <text fill="rgb(204,153,255)" x="313.8755" xml:space="preserve" y="563.9787" clip-path="url(#clipPath2)" stroke="none">Identification</text>
      <text fill="rgb(153,204,0)" x="67.0769" xml:space="preserve" y="507.4143" clip-path="url(#clipPath2)" stroke="none">Relations</text>
      <text fill="aqua" x="688.0575" xml:space="preserve" y="529.4099" clip-path="url(#clipPath2)" stroke="none">Metadata</text>
    </g>
    <g stroke-linecap="butt" transform="matrix(1,0,0,1,-60,-442)" fill="rgb(204,153,255)" text-rendering="geometricPrecision" shape-rendering="geometricPrecision" stroke-dasharray="6,2" stroke="rgb(204,153,255)" stroke-miterlimit="1.45">
      <rect x="311.8755" y="573.88" clip-path="url(#clipPath2)" fill="none" width="180.3349" rx="4" ry="4" height="57.68"/>
      <path fill="none" stroke-dasharray="none" d="M457.2584 618.4828 L566.9761 648.2352" clip-path="url(#clipPath2)" stroke="black"/>
      <path fill="black" stroke-dasharray="none" d="M574.6973 650.3289 L564.4241 642.3625 L566.011 647.9734 L561.8069 652.014 Z" clip-path="url(#clipPath2)" stroke="none"/>
    </g>
    <g text-rendering="geometricPrecision" stroke-miterlimit="1.45" shape-rendering="geometricPrecision" font-family="sans-serif" transform="matrix(1,0,0,1,-60,-442)" stroke-linecap="butt">
      <text x="517.0692" xml:space="preserve" y="628.9436" clip-path="url(#clipPath2)" stroke="none">next</text>
      <path fill="none" d="M609.0609 680.3236 L423.6076 813.3345" clip-path="url(#clipPath2)"/>
      <path d="M417.1068 817.997 L429.7721 815.0662 L424.4202 812.7516 L423.9439 806.9402 Z" clip-path="url(#clipPath2)" stroke="none"/>
      <text x="567.1997" xml:space="preserve" y="733.2131" clip-path="url(#clipPath2)" stroke="none">next</text>
      <path fill="none" d="M401.9485 472.6662 L401.9485 580.5054" clip-path="url(#clipPath2)"/>
      <path d="M401.9485 588.5054 L406.9485 576.5054 L401.9485 579.5054 L396.9485 576.5054 Z" clip-path="url(#clipPath2)" stroke="none"/>
      <text x="406.551" xml:space="preserve" y="534.7365" clip-path="url(#clipPath2)" stroke="none">next</text>
      <path fill="none" d="M192.1599 658.9805 L266.3795 704.7969" clip-path="url(#clipPath2)"/>
      <path d="M273.1869 708.9991 L265.6022 698.4411 L265.5286 704.2716 L260.3494 706.9504 Z" clip-path="url(#clipPath2)" stroke="none"/>
      <text x="250.3115" xml:space="preserve" y="679.0952" clip-path="url(#clipPath2)" stroke="none">next</text>
      <path fill="none" d="M388.9673 618.4606 L315.7479 702.933" clip-path="url(#clipPath2)"/>
      <path d="M310.508 708.9781 L322.146 703.1853 L316.4028 702.1773 L314.5896 696.6355 Z" clip-path="url(#clipPath2)" stroke="none"/>
      <text x="320.2652" xml:space="preserve" y="659.2351" clip-path="url(#clipPath2)" stroke="none">next</text>
      <path fill="none" d="M311.0539 738.9822 L377.2462 812.0812" clip-path="url(#clipPath2)"/>
      <path d="M382.616 818.0113 L378.2676 805.7601 L376.575 811.34 L370.8551 812.4723 Z" clip-path="url(#clipPath2)" stroke="none"/>
      <text x="295.7542" xml:space="preserve" y="785.7304" clip-path="url(#clipPath2)" stroke="none">next</text>
    </g>
  </g>
</svg>
