<?xml version="1.0" encoding="UTF-8"?><svg xmlns="http://www.w3.org/2000/svg" xmlns:xlink="http://www.w3.org/1999/xlink" fill-opacity="1" color-rendering="auto" color-interpolation="auto" text-rendering="auto" stroke="black" stroke-linecap="square" width="1116" stroke-miterlimit="10" shape-rendering="auto" stroke-opacity="1" fill="black" stroke-dasharray="none" font-weight="normal" stroke-width="1" height="622" font-family="'Dialog'" font-style="normal" stroke-linejoin="miter" font-size="12px" stroke-dashoffset="0" image-rendering="auto">
  <!--Generated by ySVG 2.6-->
  <defs id="genericDefs"/>
  <g>
    <defs id="defs1">
      <clipPath clipPathUnits="userSpaceOnUse" id="clipPath1">
        <path d="M0 0 L1116 0 L1116 622 L0 622 L0 0 Z"/>
      </clipPath>
      <clipPath clipPathUnits="userSpaceOnUse" id="clipPath2">
        <path d="M-186 -446 L930 -446 L930 176 L-186 176 L-186 -446 Z"/>
      </clipPath>
      <clipPath clipPathUnits="userSpaceOnUse" id="clipPath3">
        <path d="M0 0 L0 17 L309 17 L309 0 Z"/>
      </clipPath>
      <clipPath clipPathUnits="userSpaceOnUse" id="clipPath4">
        <path d="M0 0 L0 17 L334 17 L334 0 Z"/>
      </clipPath>
      <script type="text/ecmascript"><![CDATA[      var SVGDocument = null;
      var SVGRoot = null;
      var TrueCoords = null;
      var lastElement = null;
      var initialized = null;
      var tipGroup;
      function Init(evt)
      {
         SVGDocument = evt.target.ownerDocument;
         SVGRoot = SVGDocument.documentElement;
         TrueCoords = SVGRoot.createSVGPoint();
         initialized = evt;
      };
      function GetTrueCoords(evt)
      {
         var newScale = SVGRoot.currentScale;
         var translation = SVGRoot.currentTranslate;
         TrueCoords.x = (evt.clientX - translation.x)/newScale;
         TrueCoords.y = (evt.clientY - translation.y)/newScale;
      };
      function HideTooltip( evt )
      {
         if(initialized == null) {
           Init(evt);
         }
         if(tipGroup != null) {
           tipGroup.setAttributeNS(null, 'visibility', 'hidden');
         }
      };
      function ShowTooltip( evt )
      {
         if(initialized == null) {
           Init(evt);
         }
         GetTrueCoords( evt );
         var tipScale = 1/SVGRoot.currentScale;
         var targetElement = evt.currentTarget;
         if ( lastElement != targetElement )
         {
            var targetId = targetElement.getAttributeNS(null, 'id');
            var tipId = 'tooltip.' + targetId;
            tipGroup = SVGDocument.getElementById(tipId);
            var xPos = TrueCoords.x + (10 * tipScale);
            var yPos = TrueCoords.y + (10 * tipScale);
            tipGroup.setAttributeNS(null, 'transform', 'translate(' + xPos + ',' + yPos + ') scale(' + tipScale + ')');
            tipGroup.setAttributeNS(null, 'visibility', 'visible');
         }
      };
]]></script>
    </defs>
    <g fill="white" text-rendering="geometricPrecision" shape-rendering="geometricPrecision" transform="translate(186,446)" stroke="white">
      <rect x="-186" width="1116" height="622" y="-446" clip-path="url(#clipPath2)" stroke="none"/>
    </g>
    <g id="y.node.0">
      <g fill="rgb(255,204,0)" text-rendering="geometricPrecision" shape-rendering="geometricPrecision" transform="matrix(1,0,0,1,186,446)" stroke="rgb(255,204,0)">
        <rect x="140.5977" y="-306.5" width="48.8047" rx="4" ry="4" height="30" stroke="none"/>
      </g>
      <g text-rendering="geometricPrecision" stroke-miterlimit="1.45" shape-rendering="geometricPrecision" transform="matrix(1,0,0,1,186,446)" stroke-linecap="butt">
        <rect x="140.5977" y="-306.5" fill="none" width="48.8047" rx="4" ry="4" height="30"/>
      </g>
      <g>
        <g text-rendering="geometricPrecision" stroke-miterlimit="1.45" shape-rendering="geometricPrecision" font-family="sans-serif" transform="matrix(1,0,0,1,186,446)" stroke-linecap="butt">
          <text x="147.5977" xml:space="preserve" y="-287.3457" stroke="none">Script</text>
        </g>
      </g>
    </g>
    <g id="y.node.1">
      <g fill="rgb(255,204,0)" text-rendering="geometricPrecision" shape-rendering="geometricPrecision" transform="matrix(1,0,0,1,186,446)" stroke="rgb(255,204,0)">
        <rect x="311.1826" y="-147.5" width="57.6348" rx="4" ry="4" height="30" stroke="none"/>
      </g>
      <g text-rendering="geometricPrecision" stroke-miterlimit="1.45" shape-rendering="geometricPrecision" transform="matrix(1,0,0,1,186,446)" stroke-linecap="butt">
        <rect x="311.1826" y="-147.5" fill="none" width="57.6348" rx="4" ry="4" height="30"/>
      </g>
      <g>
        <g text-rendering="geometricPrecision" stroke-miterlimit="1.45" shape-rendering="geometricPrecision" font-family="sans-serif" transform="matrix(1,0,0,1,186,446)" stroke-linecap="butt">
          <text x="318.1826" xml:space="preserve" y="-128.3457" stroke="none">Module</text>
        </g>
      </g>
    </g>
    <g id="y.node.2">
      <g fill="rgb(204,255,255)" text-rendering="geometricPrecision" shape-rendering="geometricPrecision" transform="matrix(1,0,0,1,186,446)" stroke="rgb(204,255,255)">
        <rect x="429.04" y="-306.5" width="88.2559" rx="4" ry="4" height="30" stroke="none"/>
      </g>
      <g text-rendering="geometricPrecision" stroke-miterlimit="1.45" shape-rendering="geometricPrecision" transform="matrix(1,0,0,1,186,446)" stroke-linecap="butt">
        <rect x="429.04" y="-306.5" fill="none" width="88.2559" rx="4" ry="4" height="30"/>
      </g>
      <g>
        <g text-rendering="geometricPrecision" stroke-miterlimit="1.45" shape-rendering="geometricPrecision" font-family="sans-serif" transform="matrix(1,0,0,1,186,446)" stroke-linecap="butt">
          <text x="436.04" xml:space="preserve" y="-287.3457" stroke="none">Module type</text>
        </g>
      </g>
    </g>
    <g id="y.node.3">
      <g fill="rgb(255,204,0)" text-rendering="geometricPrecision" shape-rendering="geometricPrecision" transform="matrix(1,0,0,1,186,446)" stroke="rgb(255,204,0)">
        <rect x="134.3867" y="-435.5" width="61.2266" rx="4" ry="4" height="30" stroke="none"/>
      </g>
      <g text-rendering="geometricPrecision" stroke-miterlimit="1.45" shape-rendering="geometricPrecision" transform="matrix(1,0,0,1,186,446)" stroke-linecap="butt">
        <rect x="134.3867" y="-435.5" fill="none" width="61.2266" rx="4" ry="4" height="30"/>
      </g>
      <g>
        <g text-rendering="geometricPrecision" stroke-miterlimit="1.45" shape-rendering="geometricPrecision" font-family="sans-serif" transform="matrix(1,0,0,1,186,446)" stroke-linecap="butt">
          <text x="141.3867" xml:space="preserve" y="-416.3457" stroke="none">Pipeline</text>
        </g>
      </g>
    </g>
    <g id="y.node.4">
      <g fill="rgb(255,204,0)" text-rendering="geometricPrecision" shape-rendering="geometricPrecision" transform="matrix(1,0,0,1,186,446)" stroke="rgb(255,204,0)">
        <rect x="667.0576" y="-306.5" width="76.9707" rx="4" ry="4" height="30" stroke="none"/>
      </g>
      <g text-rendering="geometricPrecision" stroke-miterlimit="1.45" shape-rendering="geometricPrecision" transform="matrix(1,0,0,1,186,446)" stroke-linecap="butt">
        <rect x="667.0576" y="-306.5" fill="none" width="76.9707" rx="4" ry="4" height="30"/>
      </g>
      <g>
        <g text-rendering="geometricPrecision" stroke-miterlimit="1.45" shape-rendering="geometricPrecision" font-family="sans-serif" transform="matrix(1,0,0,1,186,446)" stroke-linecap="butt">
          <text x="674.0576" xml:space="preserve" y="-287.3457" stroke="none">Parameter</text>
        </g>
      </g>
    </g>
    <g id="y.node.5">
      <g fill="rgb(255,204,0)" text-rendering="geometricPrecision" shape-rendering="geometricPrecision" transform="matrix(1,0,0,1,186,446)" stroke="rgb(255,204,0)">
        <rect x="-18.4045" y="-163.25" width="107.4453" rx="4" ry="4" height="30" stroke="none"/>
      </g>
      <g text-rendering="geometricPrecision" stroke-miterlimit="1.45" shape-rendering="geometricPrecision" transform="matrix(1,0,0,1,186,446)" stroke-linecap="butt">
        <rect x="-18.4045" y="-163.25" fill="none" width="107.4453" rx="4" ry="4" height="30"/>
      </g>
      <g>
        <g text-rendering="geometricPrecision" stroke-miterlimit="1.45" shape-rendering="geometricPrecision" font-family="sans-serif" transform="matrix(1,0,0,1,186,446)" stroke-linecap="butt">
          <text x="-11.4045" xml:space="preserve" y="-144.0957" stroke="none">Imported Script</text>
        </g>
      </g>
    </g>
    <g id="y.node.6">
      <g fill="rgb(255,204,0)" text-rendering="geometricPrecision" shape-rendering="geometricPrecision" transform="matrix(1,0,0,1,186,446)" stroke="rgb(255,204,0)">
        <rect x="443.4717" y="-147.5" width="193.0566" rx="4" ry="4" height="30" stroke="none"/>
      </g>
      <g text-rendering="geometricPrecision" stroke-miterlimit="1.45" shape-rendering="geometricPrecision" transform="matrix(1,0,0,1,186,446)" stroke-linecap="butt">
        <rect x="443.4717" y="-147.5" fill="none" width="193.0566" rx="4" ry="4" height="30"/>
      </g>
      <g>
        <g text-rendering="geometricPrecision" stroke-miterlimit="1.45" shape-rendering="geometricPrecision" font-family="sans-serif" transform="matrix(1,0,0,1,186,446)" stroke-linecap="butt">
          <text x="450.4717" xml:space="preserve" y="-128.3457" stroke="none">Parameter value specification</text>
        </g>
      </g>
    </g>
    <g id="y.node.7">
      <g fill="rgb(255,102,0)" text-rendering="geometricPrecision" shape-rendering="geometricPrecision" transform="matrix(1,0,0,1,186,446)" stroke="rgb(255,102,0)">
        <rect x="279.6475" y="127.5" width="120.7051" rx="4" ry="4" height="30" stroke="none"/>
      </g>
      <g text-rendering="geometricPrecision" stroke-miterlimit="1.45" shape-rendering="geometricPrecision" transform="matrix(1,0,0,1,186,446)" stroke-linecap="butt">
        <rect x="279.6475" y="127.5" fill="none" width="120.7051" rx="4" ry="4" height="30"/>
      </g>
      <g>
        <g text-rendering="geometricPrecision" stroke-miterlimit="1.45" shape-rendering="geometricPrecision" font-family="sans-serif" transform="matrix(1,0,0,1,186,446)" stroke-linecap="butt">
          <text x="286.6475" xml:space="preserve" y="146.6543" stroke="none">Module Execution</text>
        </g>
      </g>
    </g>
    <g id="y.node.8">
      <g fill="rgb(255,204,0)" text-rendering="geometricPrecision" shape-rendering="geometricPrecision" transform="matrix(1,0,0,1,186,446)" stroke="rgb(255,204,0)">
        <rect x="-111.3369" y="-82.5" width="154.1738" rx="4" ry="4" height="30" stroke="none"/>
      </g>
      <g text-rendering="geometricPrecision" stroke-miterlimit="1.45" shape-rendering="geometricPrecision" transform="matrix(1,0,0,1,186,446)" stroke-linecap="butt">
        <rect x="-111.3369" y="-82.5" fill="none" width="154.1738" rx="4" ry="4" height="30"/>
      </g>
      <g>
        <g text-rendering="geometricPrecision" stroke-miterlimit="1.45" shape-rendering="geometricPrecision" font-family="sans-serif" transform="matrix(1,0,0,1,186,446)" stroke-linecap="butt">
          <text x="-104.3369" xml:space="preserve" y="-63.3457" stroke="none">Input providing module</text>
        </g>
      </g>
    </g>
    <g id="y.node.9">
      <g fill="rgb(255,204,0)" text-rendering="geometricPrecision" shape-rendering="geometricPrecision" transform="matrix(1,0,0,1,186,446)" stroke="rgb(255,204,0)">
        <rect x="100.3574" y="-82.5" width="164.7852" rx="4" ry="4" height="30" stroke="none"/>
      </g>
      <g text-rendering="geometricPrecision" stroke-miterlimit="1.45" shape-rendering="geometricPrecision" transform="matrix(1,0,0,1,186,446)" stroke-linecap="butt">
        <rect x="100.3574" y="-82.5" fill="none" width="164.7852" rx="4" ry="4" height="30"/>
      </g>
      <g>
        <g text-rendering="geometricPrecision" stroke-miterlimit="1.45" shape-rendering="geometricPrecision" font-family="sans-serif" transform="matrix(1,0,0,1,186,446)" stroke-linecap="butt">
          <text x="107.3574" xml:space="preserve" y="-63.3457" stroke="none">Output providing module</text>
        </g>
      </g>
    </g>
    <g id="y.node.10">
      <g fill="rgb(255,204,0)" text-rendering="geometricPrecision" shape-rendering="geometricPrecision" transform="matrix(1,0,0,1,186,446)" stroke="rgb(255,204,0)">
        <rect x="-172.1925" y="-163.25" width="111.002" rx="4" ry="4" height="30" stroke="none"/>
      </g>
      <g text-rendering="geometricPrecision" stroke-miterlimit="1.45" shape-rendering="geometricPrecision" transform="matrix(1,0,0,1,186,446)" stroke-linecap="butt">
        <rect x="-172.1925" y="-163.25" fill="none" width="111.002" rx="4" ry="4" height="30"/>
      </g>
      <g>
        <g text-rendering="geometricPrecision" stroke-miterlimit="1.45" shape-rendering="geometricPrecision" font-family="sans-serif" transform="matrix(1,0,0,1,186,446)" stroke-linecap="butt">
          <text x="-165.1926" xml:space="preserve" y="-144.0957" stroke="none">Importing Script</text>
        </g>
      </g>
    </g>
    <g id="y.edge.1">
      <g fill="rgb(51,102,153)" text-rendering="geometricPrecision" shape-rendering="geometricPrecision" transform="matrix(1,0,0,1,186,446)" stroke-linecap="butt" stroke="rgb(51,102,153)">
        <path fill="none" d="M181.5131 -276.4967 L319.7967 -150.8561"/>
        <path fill="black" d="M322.7573 -148.1663 L317.9104 -160.6766 L322.7573 -148.1663 L309.8409 -151.795 Z" stroke="none"/>
        <path stroke-linecap="square" fill="none" d="M322.7573 -148.1663 L317.9104 -160.6766 L322.7573 -148.1663 L309.8409 -151.795 Z"/>
      </g>
      <g>
        <g text-rendering="geometricPrecision" stroke-miterlimit="1.45" shape-rendering="geometricPrecision" transform="matrix(0.7401,0.6725,-0.6725,0.7401,420.2467,192.6321)" stroke-linecap="butt">
          <text x="2" xml:space="preserve" y="13.1387" stroke="none">has part   1...n</text>
        </g>
      </g>
    </g>
    <g id="y.edge.4">
      <g fill="rgb(51,102,153)" text-rendering="geometricPrecision" shape-rendering="geometricPrecision" transform="matrix(1,0,0,1,186,446)" stroke-linecap="butt" stroke="rgb(51,102,153)">
        <path fill="none" d="M355.7046 -147.4857 L375.5 -166.375 L463.6142 -166.375 L463.6142 -191.5 L387.5 -191.5 L355.2193 -151.4039"/>
        <path fill="black" d="M352.7108 -148.2882 L364.9097 -153.8728 L352.7108 -148.2882 L355.5625 -161.3981 Z" stroke="none"/>
        <path stroke-linecap="square" fill="none" d="M352.7108 -148.2882 L364.9097 -153.8728 L352.7108 -148.2882 L355.5625 -161.3981 Z"/>
      </g>
      <g>
        <g text-rendering="geometricPrecision" stroke-miterlimit="1.45" shape-rendering="geometricPrecision" transform="matrix(1,0,-0,1,560.2798,231.5312)" stroke-linecap="butt">
          <text x="2" xml:space="preserve" y="13.1387" stroke="none">preceding / next</text>
        </g>
      </g>
    </g>
    <g id="y.edge.6">
      <g fill="rgb(51,102,153)" text-rendering="geometricPrecision" shape-rendering="geometricPrecision" transform="matrix(1,0,0,1,186,446)" stroke-linecap="butt" stroke="rgb(51,102,153)">
        <path fill="none" d="M333.835 -147.5227 L274.75 -291.5 L194.4295 -291.5"/>
        <path fill="black" d="M190.4295 -291.5 L202.4295 -285.5 L190.4295 -291.5 L202.4295 -297.5 Z" stroke="none"/>
        <path stroke-linecap="square" fill="none" d="M190.4295 -291.5 L202.4295 -285.5 L190.4295 -291.5 L202.4295 -297.5 Z"/>
      </g>
      <g>
        <g text-rendering="geometricPrecision" stroke-miterlimit="1.45" shape-rendering="geometricPrecision" transform="matrix(1,0,-0,1,393.4174,137.1744)" stroke-linecap="butt">
          <text x="2" xml:space="preserve" y="13.1387" stroke="none">1   is defined in</text>
        </g>
      </g>
    </g>
    <g id="y.edge.5">
      <g fill="rgb(51,102,153)" text-rendering="geometricPrecision" shape-rendering="geometricPrecision" transform="matrix(1,0,0,1,186,446)" stroke-linecap="butt" stroke="rgb(51,102,153)">
        <path fill="none" d="M340 -147.5227 L340 -291.5 L424.0496 -291.5"/>
        <path fill="black" d="M428.0496 -291.5 L416.0496 -297.5 L428.0496 -291.5 L416.0496 -285.5 Z" stroke="none"/>
        <path stroke-linecap="square" fill="none" d="M428.0496 -291.5 L416.0496 -297.5 L428.0496 -291.5 L416.0496 -285.5 Z"/>
      </g>
      <g>
        <g text-rendering="geometricPrecision" stroke-miterlimit="1.45" shape-rendering="geometricPrecision" transform="matrix(1,0,0,1,186,446)" stroke-linecap="butt">
          <text x="339.2358" xml:space="preserve" y="-297.4649" stroke="none">instance of::</text>
        </g>
      </g>
    </g>
    <g id="y.edge.0">
      <g fill="rgb(51,102,153)" text-rendering="geometricPrecision" shape-rendering="geometricPrecision" transform="matrix(1,0,0,1,186,446)" stroke-linecap="butt" stroke="rgb(51,102,153)">
        <path fill="none" d="M165 -405.4773 L165 -311.4985"/>
        <path fill="black" d="M165 -307.4985 L171 -319.4985 L165 -307.4985 L159 -319.4985 Z" stroke="none"/>
        <path stroke-linecap="square" fill="none" d="M165 -307.4985 L171 -319.4985 L165 -307.4985 L159 -319.4985 Z"/>
      </g>
      <g>
        <g text-rendering="geometricPrecision" stroke-miterlimit="1.45" shape-rendering="geometricPrecision" transform="matrix(0,-1,1,0,328.668,113.8638)" stroke-linecap="butt">
          <text x="2" xml:space="preserve" y="13.1387" stroke="none">is part of</text>
        </g>
      </g>
    </g>
    <g id="y.edge.2">
      <g fill="rgb(51,102,153)" text-rendering="geometricPrecision" shape-rendering="geometricPrecision" transform="matrix(1,0,0,1,186,446)" stroke-linecap="butt" stroke="rgb(51,102,153)">
        <path fill="none" d="M517.2772 -291.5 L662.0717 -291.5"/>
        <path fill="black" d="M666.0717 -291.5 L654.0717 -297.5 L666.0717 -291.5 L654.0717 -285.5 Z" stroke="none"/>
        <path stroke-linecap="square" fill="none" d="M666.0717 -291.5 L654.0717 -297.5 L666.0717 -291.5 L654.0717 -285.5 Z"/>
      </g>
      <g>
        <g text-rendering="geometricPrecision" stroke-miterlimit="1.45" shape-rendering="geometricPrecision" transform="matrix(1,0,0,1,186,446)" stroke-linecap="butt">
          <text x="570.2773" xml:space="preserve" y="-296.3311" stroke="none">defines</text>
        </g>
      </g>
    </g>
    <g id="y.edge.11">
      <g fill="rgb(51,102,153)" text-rendering="geometricPrecision" shape-rendering="geometricPrecision" transform="matrix(1,0,0,1,186,446)" stroke-linecap="butt" stroke="rgb(51,102,153)">
        <path fill="none" d="M35.3182 -163.2535 L35.3182 -291.5 L135.5897 -291.5"/>
        <path fill="black" d="M139.5897 -291.5 L127.5897 -297.5 L139.5897 -291.5 L127.5897 -285.5 Z" stroke="none"/>
        <path stroke-linecap="square" fill="none" d="M139.5897 -291.5 L127.5897 -297.5 L139.5897 -291.5 L127.5897 -285.5 Z"/>
      </g>
      <g>
        <g text-rendering="geometricPrecision" stroke-miterlimit="1.45" shape-rendering="geometricPrecision" transform="matrix(0.9998,0.0183,-0.0183,0.9998,202.0921,133.1453)" stroke-linecap="butt">
          <text x="2" xml:space="preserve" y="13.1387" stroke="none">1   imports   1...n</text>
        </g>
      </g>
    </g>
    <g id="y.edge.18">
      <g text-rendering="geometricPrecision" stroke-miterlimit="1.45" shape-rendering="geometricPrecision" transform="matrix(1,0,0,1,186,446)" stroke-linecap="butt">
        <path fill="none" d="M48.9006 -163.2535 L141.356 -265.3823"/>
        <path fill="white" d="M151.4229 -276.5024 L136.2369 -268.6677 L145.133 -260.6142 Z" stroke="none"/>
        <path fill="none" d="M151.4229 -276.5024 L136.2369 -268.6677 L145.133 -260.6142 Z"/>
      </g>
    </g>
    <g id="y.edge.3">
      <g fill="rgb(51,102,153)" text-rendering="geometricPrecision" shape-rendering="geometricPrecision" transform="matrix(1,0,0,1,186,446)" stroke-linecap="butt" stroke="rgb(51,102,153)">
        <path fill="none" d="M368.8574 -132.5 L438.4398 -132.5"/>
        <path fill="black" d="M442.4398 -132.5 L430.4398 -138.5 L442.4398 -132.5 L430.4398 -126.5 Z" stroke="none"/>
        <path stroke-linecap="square" fill="none" d="M442.4398 -132.5 L430.4398 -138.5 L442.4398 -132.5 L430.4398 -126.5 Z"/>
      </g>
      <g>
        <g text-rendering="geometricPrecision" stroke-miterlimit="1.45" shape-rendering="geometricPrecision" transform="matrix(1,0,0,1,186,446)" stroke-linecap="butt">
          <text x="384.2451" xml:space="preserve" y="-137.3311" stroke="none">defines</text>
        </g>
      </g>
    </g>
    <g id="y.edge.15">
      <g fill="rgb(51,102,153)" text-rendering="geometricPrecision" shape-rendering="geometricPrecision" transform="matrix(1,0,0,1,186,446)" stroke-linecap="butt" stroke="rgb(51,102,153)">
        <path fill="none" d="M340 127.4945 L340 -112.4881"/>
        <path fill="black" d="M340 -116.4881 L334 -104.4881 L340 -116.4881 L346 -104.4881 Z" stroke="none"/>
        <path stroke-linecap="square" fill="none" d="M340 -116.4881 L334 -104.4881 L340 -116.4881 L346 -104.4881 Z"/>
      </g>
      <g>
        <g text-rendering="geometricPrecision" stroke-miterlimit="1.45" shape-rendering="geometricPrecision" transform="matrix(0,-1,1,0,503.0312,525.5215)" stroke-linecap="butt">
          <text x="2" xml:space="preserve" y="13.1387" stroke="none">0...n   is execution of   1</text>
        </g>
      </g>
    </g>
    <g id="y.edge.7">
      <g text-rendering="geometricPrecision" stroke-miterlimit="1.45" shape-rendering="geometricPrecision" transform="matrix(1,0,0,1,186,446)" stroke-linecap="butt">
        <path fill="none" d="M42.0893 -80.7587 L296.383 -124.9246"/>
        <path fill="white" d="M311.1617 -127.4913 L294.371 -130.6649 L296.4244 -118.8419 Z" stroke="none"/>
        <path fill="none" d="M311.1617 -127.4913 L294.371 -130.6649 L296.4244 -118.8419 Z"/>
      </g>
    </g>
    <g id="y.edge.8">
      <g text-rendering="geometricPrecision" stroke-miterlimit="1.45" shape-rendering="geometricPrecision" transform="matrix(1,0,0,1,186,446)" stroke-linecap="butt">
        <path fill="none" d="M219.0296 -82.4963 L297.4012 -114.8916"/>
        <path fill="white" d="M311.2636 -120.6217 L294.185 -120.0546 L298.7691 -108.9646 Z" stroke="none"/>
        <path fill="none" d="M311.2636 -120.6217 L294.185 -120.0546 L298.7691 -108.9646 Z"/>
      </g>
    </g>
    <g id="y.edge.12">
      <g text-rendering="geometricPrecision" stroke-miterlimit="1.45" shape-rendering="geometricPrecision" transform="matrix(1,0,0,1,186,446)" stroke-linecap="butt">
        <path fill="none" d="M-87.2226 -163.236 L127.4603 -272.4097"/>
        <path fill="white" d="M140.8307 -279.2091 L123.8492 -277.3046 L129.2887 -266.6083 Z" stroke="none"/>
        <path fill="none" d="M140.8307 -279.2091 L123.8492 -277.3046 L129.2887 -266.6083 Z"/>
      </g>
      <g/>
    </g>
    <g id="y.node.11">
      <g fill="rgb(104,176,227)" text-rendering="geometricPrecision" shape-rendering="geometricPrecision" transform="matrix(1,0,0,1,186,446)" stroke="rgb(104,176,227)">
        <path d="M-175.4911 19.4423 L-175.4911 158.8468 L50.1698 158.8468 L50.1698 19.4423 ZM-171.4911 41.4423 L-171.4911 154.8468 L46.1698 154.8468 L46.1698 41.4423 Z" stroke="none" fill-rule="evenodd"/>
      </g>
      <g>
        <g stroke-linecap="butt" transform="matrix(1,0,0,1,186,446)" fill="white" text-rendering="geometricPrecision" shape-rendering="geometricPrecision" stroke="white" stroke-miterlimit="1.45">
          <text x="-169.4911" xml:space="preserve" y="36.5809" stroke="none">LEGEND</text>
        </g>
      </g>
    </g>
    <g id="y.node.12">
      <g fill="rgb(255,102,0)" text-rendering="geometricPrecision" shape-rendering="geometricPrecision" transform="matrix(1,0,0,1,186,446)" stroke="rgb(255,102,0)">
        <rect x="-160.4911" y="75.4423" width="195.6609" rx="4" ry="4" height="30" stroke="none"/>
      </g>
      <g text-rendering="geometricPrecision" stroke-miterlimit="1.45" shape-rendering="geometricPrecision" transform="matrix(1,0,0,1,186,446)" stroke-linecap="butt">
        <rect x="-160.4911" y="75.4423" fill="none" width="195.6609" rx="4" ry="4" height="30"/>
      </g>
      <g>
        <g text-rendering="geometricPrecision" stroke-miterlimit="1.45" shape-rendering="geometricPrecision" font-family="sans-serif" transform="matrix(1,0,0,1,186,446)" stroke-linecap="butt">
          <text x="-153.6508" xml:space="preserve" y="94.5966" stroke="none">Execution related terminology</text>
        </g>
      </g>
    </g>
    <g id="y.node.13">
      <g fill="rgb(204,255,255)" text-rendering="geometricPrecision" shape-rendering="geometricPrecision" transform="matrix(1,0,0,1,186,446)" stroke="rgb(204,255,255)">
        <rect x="-160.4911" y="45.4423" width="125.0059" rx="4" ry="4" height="30" stroke="none"/>
      </g>
      <g text-rendering="geometricPrecision" stroke-miterlimit="1.45" shape-rendering="geometricPrecision" transform="matrix(1,0,0,1,186,446)" stroke-linecap="butt">
        <rect x="-160.4911" y="45.4423" fill="none" width="125.0059" rx="4" ry="4" height="30"/>
      </g>
      <g>
        <g text-rendering="geometricPrecision" stroke-miterlimit="1.45" shape-rendering="geometricPrecision" font-family="sans-serif" transform="matrix(1,0,0,1,186,446)" stroke-linecap="butt">
          <text x="-153.4911" xml:space="preserve" y="64.5966" stroke="none">Script terminology</text>
        </g>
      </g>
    </g>
    <g onmouseout="HideTooltip(evt)" id="y.node.14" onmousemove="ShowTooltip(evt)">
      <g fill="rgb(255,204,0)" text-rendering="geometricPrecision" shape-rendering="geometricPrecision" transform="matrix(1,0,0,1,186,446)" stroke="rgb(255,204,0)">
        <rect x="566.833" y="-237.25" width="131.873" rx="4" ry="4" height="38.75" stroke="none"/>
      </g>
      <g text-rendering="geometricPrecision" stroke-miterlimit="1.45" shape-rendering="geometricPrecision" transform="matrix(1,0,0,1,186,446)" stroke-linecap="butt">
        <rect x="566.833" y="-237.25" fill="none" width="131.873" rx="4" ry="4" height="38.75"/>
      </g>
      <g>
        <g text-rendering="geometricPrecision" stroke-miterlimit="1.45" shape-rendering="geometricPrecision" font-family="sans-serif" transform="matrix(1,0,0,1,186,446)" stroke-linecap="butt">
          <text x="588.4873" xml:space="preserve" y="-220.7051" stroke="none">&lt;&lt;Subkind&gt;&gt;</text>
          <text x="575.834" xml:space="preserve" y="-206.7363" stroke="none">Specific parameter</text>
        </g>
      </g>
    </g>
    <g onmouseout="HideTooltip(evt)" id="y.node.15" onmousemove="ShowTooltip(evt)">
      <g fill="rgb(255,204,0)" text-rendering="geometricPrecision" shape-rendering="geometricPrecision" transform="matrix(1,0,0,1,186,446)" stroke="rgb(255,204,0)">
        <rect x="716.7412" y="-237.25" width="127.7012" rx="4" ry="4" height="38.75" stroke="none"/>
      </g>
      <g text-rendering="geometricPrecision" stroke-miterlimit="1.45" shape-rendering="geometricPrecision" transform="matrix(1,0,0,1,186,446)" stroke-linecap="butt">
        <rect x="716.7412" y="-237.25" fill="none" width="127.7012" rx="4" ry="4" height="38.75"/>
      </g>
      <g>
        <g text-rendering="geometricPrecision" stroke-miterlimit="1.45" shape-rendering="geometricPrecision" font-family="sans-serif" transform="matrix(1,0,0,1,186,446)" stroke-linecap="butt">
          <text x="736.3096" xml:space="preserve" y="-220.7051" stroke="none">&lt;&lt;Subkind&gt;&gt;</text>
          <text x="723.7412" xml:space="preserve" y="-206.7363" stroke="none">Generic parameter</text>
        </g>
      </g>
    </g>
    <g id="y.node.16">
      <g fill="rgb(255,102,0)" text-rendering="geometricPrecision" shape-rendering="geometricPrecision" transform="matrix(1,0,0,1,186,446)" stroke="rgb(255,102,0)">
        <rect x="443.4717" y="-10" width="193.0566" rx="4" ry="4" height="30" stroke="none"/>
      </g>
      <g text-rendering="geometricPrecision" stroke-miterlimit="1.45" shape-rendering="geometricPrecision" transform="matrix(1,0,0,1,186,446)" stroke-linecap="butt">
        <rect x="443.4717" y="-10" fill="none" width="193.0566" rx="4" ry="4" height="30"/>
      </g>
      <g>
        <g text-rendering="geometricPrecision" stroke-miterlimit="1.45" shape-rendering="geometricPrecision" font-family="sans-serif" transform="matrix(1,0,0,1,186,446)" stroke-linecap="butt">
          <text x="453.4131" xml:space="preserve" y="9.1543" stroke="none">Parameter value assignment</text>
        </g>
      </g>
    </g>
    <g id="y.node.17">
      <g fill="rgb(204,255,204)" text-rendering="geometricPrecision" shape-rendering="geometricPrecision" transform="matrix(1,0,0,1,186,446)" stroke="rgb(204,255,204)">
        <rect x="454.3749" y="-250.7228" width="102.4282" rx="4" ry="4" height="30" stroke="none"/>
      </g>
      <g text-rendering="geometricPrecision" stroke-miterlimit="1.45" shape-rendering="geometricPrecision" transform="matrix(1,0,0,1,186,446)" stroke-linecap="butt">
        <rect x="454.3749" y="-250.7228" fill="none" width="102.4282" rx="4" ry="4" height="30"/>
      </g>
      <g>
        <g text-rendering="geometricPrecision" stroke-miterlimit="1.45" shape-rendering="geometricPrecision" font-family="sans-serif" transform="matrix(1,0,0,1,186,446)" stroke-linecap="butt">
          <text x="462.5109" xml:space="preserve" y="-231.5685" stroke="none">Bind by Select</text>
        </g>
      </g>
    </g>
    <g id="y.node.18">
      <g fill="rgb(255,102,0)" text-rendering="geometricPrecision" shape-rendering="geometricPrecision" transform="matrix(1,0,0,1,186,446)" stroke="rgb(255,102,0)">
        <rect x="790.3005" y="127.5" width="129.4121" rx="4" ry="4" height="30" stroke="none"/>
      </g>
      <g text-rendering="geometricPrecision" stroke-miterlimit="1.45" shape-rendering="geometricPrecision" transform="matrix(1,0,0,1,186,446)" stroke-linecap="butt">
        <rect x="790.3005" y="127.5" fill="none" width="129.4121" rx="4" ry="4" height="30"/>
      </g>
      <g>
        <g text-rendering="geometricPrecision" stroke-miterlimit="1.45" shape-rendering="geometricPrecision" font-family="sans-serif" transform="matrix(1,0,0,1,186,446)" stroke-linecap="butt">
          <text x="797.3005" xml:space="preserve" y="146.6543" stroke="none">Module inputs data</text>
        </g>
      </g>
    </g>
    <g id="y.node.19">
      <g fill="rgb(255,102,0)" text-rendering="geometricPrecision" shape-rendering="geometricPrecision" transform="matrix(1,0,0,1,186,446)" stroke="rgb(255,102,0)">
        <rect x="561.2273" y="127.5" width="131.873" rx="4" ry="4" height="30" stroke="none"/>
      </g>
      <g text-rendering="geometricPrecision" stroke-miterlimit="1.45" shape-rendering="geometricPrecision" transform="matrix(1,0,0,1,186,446)" stroke-linecap="butt">
        <rect x="561.2273" y="127.5" fill="none" width="131.873" rx="4" ry="4" height="30"/>
      </g>
      <g>
        <g text-rendering="geometricPrecision" stroke-miterlimit="1.45" shape-rendering="geometricPrecision" font-family="sans-serif" transform="matrix(1,0,0,1,186,446)" stroke-linecap="butt">
          <text x="568.2274" xml:space="preserve" y="146.6543" stroke="none">Module output data</text>
        </g>
      </g>
    </g>
    <g id="y.node.20">
      <g fill="rgb(255,102,0)" text-rendering="geometricPrecision" shape-rendering="geometricPrecision" transform="matrix(1,0,0,1,186,446)" stroke="rgb(255,102,0)">
        <rect x="683.3104" y="-10" width="113.5625" rx="4" ry="4" height="30" stroke="none"/>
      </g>
      <g text-rendering="geometricPrecision" stroke-miterlimit="1.45" shape-rendering="geometricPrecision" transform="matrix(1,0,0,1,186,446)" stroke-linecap="butt">
        <rect x="683.3104" y="-10" fill="none" width="113.5625" rx="4" ry="4" height="30"/>
      </g>
      <g>
        <g text-rendering="geometricPrecision" stroke-miterlimit="1.45" shape-rendering="geometricPrecision" font-family="sans-serif" transform="matrix(1,0,0,1,186,446)" stroke-linecap="butt">
          <text x="690.3104" xml:space="preserve" y="9.1543" stroke="none">Parameter value</text>
        </g>
      </g>
    </g>
    <g id="y.edge.16">
      <g text-rendering="geometricPrecision" stroke-miterlimit="1.45" shape-rendering="geometricPrecision" transform="matrix(1,0,0,1,186,446)" stroke-linecap="butt">
        <path fill="none" d="M651.9045 -237.2339 L680.1481 -265.808"/>
        <path fill="white" d="M690.6929 -276.4761 L675.1779 -269.3147 L683.7124 -260.8789 Z" stroke="none"/>
        <path fill="none" d="M690.6929 -276.4761 L675.1779 -269.3147 L683.7124 -260.8789 Z"/>
      </g>
    </g>
    <g id="y.edge.17">
      <g text-rendering="geometricPrecision" stroke-miterlimit="1.45" shape-rendering="geometricPrecision" transform="matrix(1,0,0,1,186,446)" stroke-linecap="butt">
        <path fill="none" d="M760.8585 -237.2339 L731.5651 -265.9716"/>
        <path fill="white" d="M720.8574 -276.4761 L728.0771 -260.9882 L736.4807 -269.5544 Z" stroke="none"/>
        <path fill="none" d="M720.8574 -276.4761 L728.0771 -260.9882 L736.4807 -269.5544 Z"/>
      </g>
    </g>
    <g id="y.edge.19">
      <g text-rendering="geometricPrecision" stroke-miterlimit="1.45" shape-rendering="geometricPrecision" transform="matrix(1,0,0,1,186,446)" stroke-linecap="butt">
        <path fill="none" d="M361.8018 127.5113 L511.5897 24.5321"/>
        <path d="M518.182 19.9998 L505.4609 22.678 L510.7656 25.0986 L511.1262 30.9184 Z" stroke="none"/>
      </g>
      <g>
        <g text-rendering="geometricPrecision" stroke-miterlimit="1.45" shape-rendering="geometricPrecision" font-family="sans-serif" transform="matrix(0.824,-0.5665,0.5665,0.824,579.0149,522.6646)" stroke-linecap="butt">
          <text x="2" xml:space="preserve" y="13.1387" stroke="none">binds</text>
        </g>
      </g>
    </g>
    <g id="y.edge.20">
      <g text-rendering="geometricPrecision" stroke-miterlimit="1.45" shape-rendering="geometricPrecision" transform="matrix(1,0,0,1,186,446)" stroke-linecap="butt">
        <path fill="none" d="M496.8663 -250.7293 L489.4308 -263.5213"/>
        <path fill="white" d="M481.8929 -276.4897 L484.746 -259.6416 L495.1207 -265.6719 Z" stroke="none"/>
        <path fill="none" d="M481.8929 -276.4897 L484.746 -259.6416 L495.1207 -265.6719 Z"/>
      </g>
    </g>
    <g id="y.edge.13">
      <g fill="rgb(51,102,153)" text-rendering="geometricPrecision" shape-rendering="geometricPrecision" transform="matrix(1,0,0,1,186,446)" stroke-linecap="butt" stroke="rgb(51,102,153)">
        <path fill="none" d="M400.3282 142.5 L556.2343 142.5"/>
        <path fill="black" d="M560.2343 142.5 L548.2343 136.5 L560.2343 142.5 L548.2343 148.5 Z" stroke="none"/>
        <path stroke-linecap="square" fill="none" d="M560.2343 142.5 L548.2343 136.5 L560.2343 142.5 L548.2343 148.5 Z"/>
      </g>
      <g>
        <g text-rendering="geometricPrecision" stroke-miterlimit="1.45" shape-rendering="geometricPrecision" transform="matrix(1,0,0,1,186,446)" stroke-linecap="butt">
          <text x="447.2634" xml:space="preserve" y="132.6699" stroke="none">produces</text>
        </g>
      </g>
    </g>
    <g id="y.edge.14">
      <g fill="rgb(51,102,153)" text-rendering="geometricPrecision" shape-rendering="geometricPrecision" transform="matrix(1,0,0,1,186,446)" stroke-linecap="butt" stroke="rgb(51,102,153)">
        <path fill="none" d="M693.1081 142.5 L785.3025 142.5"/>
        <path fill="black" d="M789.3025 142.5 L777.3025 136.5 L789.3025 142.5 L777.3025 148.5 Z" stroke="none"/>
        <path stroke-linecap="square" fill="none" d="M789.3025 142.5 L777.3025 136.5 L789.3025 142.5 L777.3025 148.5 Z"/>
      </g>
      <g>
        <g text-rendering="geometricPrecision" stroke-miterlimit="1.45" shape-rendering="geometricPrecision" transform="matrix(1,0,0,1,186,446)" stroke-linecap="butt">
          <text x="711.3372" xml:space="preserve" y="160.6387" stroke="none">consumes</text>
        </g>
      </g>
    </g>
    <g id="y.edge.9">
      <g fill="rgb(51,102,153)" text-rendering="geometricPrecision" shape-rendering="geometricPrecision" transform="matrix(1,0,0,1,186,446)" stroke-linecap="butt" stroke="rgb(51,102,153)">
        <path fill="none" d="M752.6324 20.0055 L839.2783 123.6806"/>
        <path fill="black" d="M841.8434 126.7498 L838.7519 113.6945 L841.8434 126.7498 L829.5443 121.3898 Z" stroke="none"/>
        <path stroke-linecap="square" fill="none" d="M841.8434 126.7498 L838.7519 113.6945 L841.8434 126.7498 L829.5443 121.3898 Z"/>
      </g>
      <g>
        <g text-rendering="geometricPrecision" stroke-miterlimit="1.45" shape-rendering="geometricPrecision" transform="matrix(0.6413,0.7673,-0.7673,0.6413,971.2421,472.891)" stroke-linecap="butt">
          <text x="2" xml:space="preserve" y="13.1387" stroke="none">is source for</text>
        </g>
      </g>
    </g>
    <g id="y.edge.10">
      <g fill="rgb(51,102,153)" text-rendering="geometricPrecision" shape-rendering="geometricPrecision" transform="matrix(1,0,0,1,186,446)" stroke-linecap="butt" stroke="rgb(51,102,153)">
        <path fill="none" d="M727.7677 20.0055 L642.6426 123.6533"/>
        <path fill="black" d="M640.1039 126.7444 L652.3566 121.2791 L640.1039 126.7444 L643.0833 113.663 Z" stroke="none"/>
        <path stroke-linecap="square" fill="none" d="M640.1039 126.7444 L652.3566 121.2791 L640.1039 126.7444 L643.0833 113.663 Z"/>
      </g>
      <g>
        <g text-rendering="geometricPrecision" stroke-miterlimit="1.45" shape-rendering="geometricPrecision" transform="matrix(0.6347,-0.7728,0.7728,0.6347,838.1392,530.5361)" stroke-linecap="butt">
          <text x="2" xml:space="preserve" y="13.1387" stroke="none">is source for</text>
        </g>
      </g>
    </g>
    <g visibility="hidden" id="tooltip.y.node.14" pointer-events="none">
      <g fill="rgb(195,212,232)" text-rendering="geometricPrecision" shape-rendering="geometricPrecision" font-family="sans-serif" stroke="rgb(195,212,232)">
        <rect x="0" width="309" height="17" y="0" clip-path="url(#clipPath3)" stroke="none"/>
        <text fill="black" x="4" xml:space="preserve" y="13" clip-path="url(#clipPath3)" stroke="none">Parameter is used only for specific module type.</text>
      </g>
      <g fill="rgb(49,106,196)" text-rendering="geometricPrecision" shape-rendering="geometricPrecision" font-family="sans-serif" stroke="rgb(49,106,196)">
        <path d="M0 0 L309 0 L309 17 L0 17 L0 0 ZM1 1 L308 1 L308 16 L1 16 L1 1 Z" fill-rule="evenodd" clip-path="url(#clipPath3)" stroke="none"/>
      </g>
    </g>
    <g visibility="hidden" id="tooltip.y.node.15" pointer-events="none">
      <g fill="rgb(195,212,232)" text-rendering="geometricPrecision" shape-rendering="geometricPrecision" font-family="sans-serif" stroke="rgb(195,212,232)">
        <rect x="0" width="334" height="17" y="0" clip-path="url(#clipPath4)" stroke="none"/>
        <text fill="black" x="4" xml:space="preserve" y="13" clip-path="url(#clipPath4)" stroke="none">Parameter is reused accross multiple module types.</text>
      </g>
      <g fill="rgb(49,106,196)" text-rendering="geometricPrecision" shape-rendering="geometricPrecision" font-family="sans-serif" stroke="rgb(49,106,196)">
        <path d="M0 0 L334 0 L334 17 L0 17 L0 0 ZM1 1 L333 1 L333 16 L1 16 L1 1 Z" fill-rule="evenodd" clip-path="url(#clipPath4)" stroke="none"/>
      </g>
    </g>
  </g>
</svg>
