<?xml version="1.0" encoding="UTF-8"?><svg xmlns="http://www.w3.org/2000/svg" xmlns:xlink="http://www.w3.org/1999/xlink" fill-opacity="1" color-rendering="auto" color-interpolation="auto" text-rendering="auto" stroke="black" stroke-linecap="square" width="1484" stroke-miterlimit="10" shape-rendering="auto" stroke-opacity="1" fill="black" stroke-dasharray="none" font-weight="normal" stroke-width="1" height="558" font-family="'Dialog'" font-style="normal" stroke-linejoin="miter" font-size="12px" stroke-dashoffset="0" image-rendering="auto">
  <!--Generated by ySVG 2.6-->
  <defs id="genericDefs"/>
  <g>
    <defs id="defs1">
      <clipPath clipPathUnits="userSpaceOnUse" id="clipPath1">
        <path d="M0 0 L1484 0 L1484 558 L0 558 L0 0 Z"/>
      </clipPath>
      <clipPath clipPathUnits="userSpaceOnUse" id="clipPath2">
        <path d="M5 -162 L1489 -162 L1489 396 L5 396 L5 -162 Z"/>
      </clipPath>
      <clipPath clipPathUnits="userSpaceOnUse" id="clipPath3">
        <path d="M1 -166 L1485 -166 L1485 392 L1 392 L1 -166 Z"/>
      </clipPath>
    </defs>
    <g fill="white" text-rendering="geometricPrecision" shape-rendering="geometricPrecision" transform="translate(-5,162)" stroke="white">
      <rect x="5" width="1484" height="558" y="-162" clip-path="url(#clipPath2)" stroke="none"/>
    </g>
    <g fill="rgb(255,204,0)" text-rendering="geometricPrecision" shape-rendering="geometricPrecision" transform="matrix(1,0,0,1,-5,162)" stroke="rgb(255,204,0)">
      <rect x="10" y="0" clip-path="url(#clipPath2)" width="129" rx="4" ry="4" height="30" stroke="none"/>
    </g>
    <g text-rendering="geometricPrecision" stroke-miterlimit="1.45" shape-rendering="geometricPrecision" transform="matrix(1,0,0,1,-5,162)" stroke-linecap="butt">
      <rect x="10" y="0" clip-path="url(#clipPath2)" fill="none" width="129" rx="4" ry="4" height="30"/>
      <text x="22.6885" xml:space="preserve" y="19.1543" clip-path="url(#clipPath2)" font-family="sans-serif" stroke="none">csvw:TableGroup</text>
    </g>
    <g fill="rgb(255,204,0)" text-rendering="geometricPrecision" shape-rendering="geometricPrecision" transform="matrix(1,0,0,1,-5,162)" stroke="rgb(255,204,0)">
      <rect x="270" y="0" clip-path="url(#clipPath2)" width="129" rx="4" ry="4" height="30" stroke="none"/>
    </g>
    <g text-rendering="geometricPrecision" stroke-miterlimit="1.45" shape-rendering="geometricPrecision" transform="matrix(1,0,0,1,-5,162)" stroke-linecap="butt">
      <rect x="270" y="0" clip-path="url(#clipPath2)" fill="none" width="129" rx="4" ry="4" height="30"/>
      <text x="301.0869" xml:space="preserve" y="19.1543" clip-path="url(#clipPath2)" font-family="sans-serif" stroke="none">csvw:Table</text>
    </g>
    <g fill="rgb(255,204,0)" text-rendering="geometricPrecision" shape-rendering="geometricPrecision" transform="matrix(1,0,0,1,-5,162)" stroke="rgb(255,204,0)">
      <rect x="845" y="0" clip-path="url(#clipPath2)" width="129" rx="4" ry="4" height="30" stroke="none"/>
    </g>
    <g text-rendering="geometricPrecision" stroke-miterlimit="1.45" shape-rendering="geometricPrecision" transform="matrix(1,0,0,1,-5,162)" stroke-linecap="butt">
      <rect x="845" y="0" clip-path="url(#clipPath2)" fill="none" width="129" rx="4" ry="4" height="30"/>
      <text x="879.8486" xml:space="preserve" y="19.1543" clip-path="url(#clipPath2)" font-family="sans-serif" stroke="none">csvw:Row</text>
    </g>
    <g fill="rgb(255,204,0)" text-rendering="geometricPrecision" shape-rendering="geometricPrecision" transform="matrix(1,0,0,1,-5,162)" stroke="rgb(255,204,0)">
      <rect x="845" y="141" clip-path="url(#clipPath2)" width="129" rx="4" ry="4" height="30" stroke="none"/>
    </g>
    <g text-rendering="geometricPrecision" stroke-miterlimit="1.45" shape-rendering="geometricPrecision" transform="matrix(1,0,0,1,-5,162)" stroke-linecap="butt">
      <rect x="845" y="141" clip-path="url(#clipPath2)" fill="none" width="129" rx="4" ry="4" height="30"/>
      <text x="869.6182" xml:space="preserve" y="160.1543" clip-path="url(#clipPath2)" font-family="sans-serif" stroke="none">csvw:Column</text>
    </g>
    <g fill="yellow" text-rendering="geometricPrecision" shape-rendering="geometricPrecision" transform="matrix(1,0,0,1,-5,162)" stroke="yellow">
      <rect x="1111" y="-150" clip-path="url(#clipPath2)" width="129" rx="4" ry="4" height="30" stroke="none"/>
    </g>
    <g text-rendering="geometricPrecision" stroke-miterlimit="1.45" shape-rendering="geometricPrecision" transform="matrix(1,0,0,1,-5,162)" stroke-linecap="butt">
      <rect x="1111" y="-150" clip-path="url(#clipPath2)" fill="none" width="129" rx="4" ry="4" height="30"/>
      <text x="1157.9834" xml:space="preserve" y="-130.8457" clip-path="url(#clipPath2)" font-family="sans-serif" stroke="none">Entity</text>
    </g>
    <g fill="rgb(255,204,0)" text-rendering="geometricPrecision" shape-rendering="geometricPrecision" transform="matrix(1,0,0,1,-5,162)" stroke="rgb(255,204,0)">
      <rect x="570" y="141" clip-path="url(#clipPath2)" width="129" rx="4" ry="4" height="30" stroke="none"/>
    </g>
    <g text-rendering="geometricPrecision" stroke-miterlimit="1.45" shape-rendering="geometricPrecision" transform="matrix(1,0,0,1,-5,162)" stroke-linecap="butt">
      <rect x="570" y="141" clip-path="url(#clipPath2)" fill="none" width="129" rx="4" ry="4" height="30"/>
      <text x="576.9639" xml:space="preserve" y="160.1543" clip-path="url(#clipPath2)" font-family="sans-serif" stroke="none">csvw:TableSchema</text>
    </g>
    <g fill="lime" text-rendering="geometricPrecision" shape-rendering="geometricPrecision" transform="matrix(1,0,0,1,-5,162)" stroke="lime">
      <rect x="1255" y="7.5" clip-path="url(#clipPath2)" width="129" rx="4" ry="4" height="30" stroke="none"/>
    </g>
    <g text-rendering="geometricPrecision" stroke-miterlimit="1.45" shape-rendering="geometricPrecision" transform="matrix(1,0,0,1,-5,162)" stroke-linecap="butt">
      <rect x="1255" y="7.5" clip-path="url(#clipPath2)" fill="none" width="129" rx="4" ry="4" height="30"/>
      <text x="1275.6807" xml:space="preserve" y="26.6543" clip-path="url(#clipPath2)" font-family="sans-serif" stroke="none">kbss-csvw:Cell</text>
    </g>
    <g fill="yellow" text-rendering="geometricPrecision" shape-rendering="geometricPrecision" transform="matrix(1,0,0,1,-5,162)" stroke="yellow">
      <rect x="270" y="-150" clip-path="url(#clipPath2)" width="129" rx="4" ry="4" height="30" stroke="none"/>
    </g>
    <g text-rendering="geometricPrecision" stroke-miterlimit="1.45" shape-rendering="geometricPrecision" transform="matrix(1,0,0,1,-5,162)" stroke-linecap="butt">
      <rect x="270" y="-150" clip-path="url(#clipPath2)" fill="none" width="129" rx="4" ry="4" height="30"/>
      <text x="275.7861" xml:space="preserve" y="-130.8457" clip-path="url(#clipPath2)" font-family="sans-serif" stroke="none">Data Related Entity</text>
    </g>
    <g fill="yellow" text-rendering="geometricPrecision" shape-rendering="geometricPrecision" transform="matrix(1,0,0,1,-5,162)" stroke="yellow">
      <rect x="685" y="60" clip-path="url(#clipPath2)" width="189" rx="4" ry="4" height="30" stroke="none"/>
    </g>
    <g text-rendering="geometricPrecision" stroke-miterlimit="1.45" shape-rendering="geometricPrecision" transform="matrix(1,0,0,1,-5,162)" stroke-linecap="butt">
      <rect x="685" y="60" clip-path="url(#clipPath2)" fill="none" width="189" rx="4" ry="4" height="30"/>
      <text x="694.7559" xml:space="preserve" y="79.1543" clip-path="url(#clipPath2)" font-family="sans-serif" stroke="none">Data Schema Related Entity</text>
    </g>
    <g fill="yellow" text-rendering="geometricPrecision" shape-rendering="geometricPrecision" transform="matrix(1,0,0,1,-5,162)" stroke="yellow">
      <rect x="1081" y="263" clip-path="url(#clipPath2)" width="129" rx="4" ry="4" height="30" stroke="none"/>
    </g>
    <g text-rendering="geometricPrecision" stroke-miterlimit="1.45" shape-rendering="geometricPrecision" transform="matrix(1,0,0,1,-5,162)" stroke-linecap="butt">
      <rect x="1081" y="263" clip-path="url(#clipPath2)" fill="none" width="129" rx="4" ry="4" height="30"/>
      <text x="1119.874" xml:space="preserve" y="282.1543" clip-path="url(#clipPath2)" font-family="sans-serif" stroke="none">Property</text>
      <path fill="none" d="M139 15 L261.968 15" clip-path="url(#clipPath2)"/>
      <path d="M269.968 15 L257.968 10 L260.968 15 L257.968 20 Z" clip-path="url(#clipPath2)" stroke="none"/>
      <text x="168.1956" xml:space="preserve" y="10.1543" clip-path="url(#clipPath2)" font-family="sans-serif" stroke="none">csvw:table</text>
      <path fill="none" d="M399 15 L836.9728 15" clip-path="url(#clipPath2)"/>
      <path d="M844.9728 15 L832.9728 10 L835.9728 15 L832.9728 20 Z" clip-path="url(#clipPath2)" stroke="none"/>
      <text x="569.1558" xml:space="preserve" y="10.1543" clip-path="url(#clipPath2)" font-family="sans-serif" stroke="none">csvw:row</text>
      <path fill="none" d="M909.5 0.022 L909.5 -135 L1102.9508 -135" clip-path="url(#clipPath2)"/>
      <path d="M1110.9508 -135 L1098.9508 -140 L1101.9508 -135 L1098.9508 -130 Z" clip-path="url(#clipPath2)" stroke="none"/>
      <text x="972.9093" xml:space="preserve" y="-143.8475" clip-path="url(#clipPath2)" font-family="sans-serif" stroke="none">csvw:describes</text>
      <path fill="none" d="M334.5 29.9744 L334.5 156 L561.9713 156" clip-path="url(#clipPath2)"/>
      <path d="M569.9713 156 L557.9713 151 L560.9713 156 L557.9713 161 Z" clip-path="url(#clipPath2)" stroke="none"/>
      <text x="382.2764" xml:space="preserve" y="143.0002" clip-path="url(#clipPath2)" font-family="sans-serif" stroke="none">csvw:tableSchema</text>
      <path fill="none" d="M699 156 L836.9778 156" clip-path="url(#clipPath2)"/>
      <path d="M844.9778 156 L832.9778 151 L835.9778 156 L832.9778 161 Z" clip-path="url(#clipPath2)" stroke="none"/>
      <text x="733.5087" xml:space="preserve" y="149.1543" clip-path="url(#clipPath2)" font-family="sans-serif" stroke="none">csvw:column</text>
      <path fill="none" d="M1319.5 7.4707 L1319.5 -22.5 L1469.5 -22.5 L1469.5 22.5 L1392.009 22.5" clip-path="url(#clipPath2)" stroke="lime"/>
      <path fill="lime" d="M1384.009 22.5 L1396.009 27.5 L1393.009 22.5 L1396.009 17.5 Z" clip-path="url(#clipPath2)" stroke="none"/>
      <text x="1321.6066" xml:space="preserve" y="-30.3457" clip-path="url(#clipPath2)" font-family="sans-serif" stroke="none">kbss-csvw:same-value-as</text>
      <path fill="none" d="M1255.0034 22.5 L982.002 22.5" clip-path="url(#clipPath2)" stroke="lime"/>
      <path fill="lime" d="M974.002 22.5 L986.002 27.5 L983.002 22.5 L986.002 17.5 Z" clip-path="url(#clipPath2)" stroke="none"/>
      <text x="1067.5934" xml:space="preserve" y="10.6699" clip-path="url(#clipPath2)" font-family="sans-serif" stroke="none">kbss-csvw:is-part-of-row</text>
      <path fill="none" d="M1319.5 37.5253 L1319.5 156 L982.0221 156" clip-path="url(#clipPath2)" stroke="lime"/>
      <path fill="lime" d="M974.0221 156 L986.0221 161 L983.0221 156 L986.0221 151 Z" clip-path="url(#clipPath2)" stroke="none"/>
      <text x="1068.9807" xml:space="preserve" y="150.1543" clip-path="url(#clipPath2)" font-family="sans-serif" stroke="none">kbss-csvw:is-part-of-column</text>
      <path fill="none" d="M334.5 0.022 L334.5 -105.0012" clip-path="url(#clipPath2)"/>
      <path fill="white" d="M334.5 -120.0012 L328.5 -104.0012 L340.5 -104.0012 Z" clip-path="url(#clipPath2)" stroke="none"/>
      <path fill="none" d="M334.5 -120.0012 L328.5 -104.0012 L340.5 -104.0012 Z" clip-path="url(#clipPath2)"/>
      <path fill="none" d="M851.9789 -0.0055 L406.5295 -116.2097" clip-path="url(#clipPath2)"/>
      <path fill="white" d="M392.0152 -119.996 L405.9826 -110.1516 L409.0116 -121.763 Z" clip-path="url(#clipPath2)" stroke="none"/>
      <path fill="none" d="M392.0152 -119.996 L405.9826 -110.1516 L409.0116 -121.763 Z" clip-path="url(#clipPath2)"/>
      <path fill="none" d="M100.4937 0.0037 L295.4843 -112.4909" clip-path="url(#clipPath2)"/>
      <path fill="white" d="M308.4771 -119.9868 L291.6198 -117.1883 L297.6165 -106.7941 Z" clip-path="url(#clipPath2)" stroke="none"/>
      <path fill="none" d="M308.4771 -119.9868 L291.6198 -117.1883 L297.6165 -106.7941 Z" clip-path="url(#clipPath2)"/>
      <path fill="none" d="M661.3689 140.9905 L739.5541 97.3146" clip-path="url(#clipPath2)"/>
      <path fill="white" d="M752.6494 89.9993 L735.755 92.5642 L741.6072 103.0404 Z" clip-path="url(#clipPath2)" stroke="none"/>
      <path fill="none" d="M752.6494 89.9993 L735.755 92.5642 L741.6072 103.0404 Z" clip-path="url(#clipPath2)"/>
      <path fill="none" d="M885.4106 140.9905 L816.3039 97.9317" clip-path="url(#clipPath2)"/>
      <path fill="white" d="M803.5729 89.9993 L813.9797 103.5529 L820.3256 93.3681 Z" clip-path="url(#clipPath2)" stroke="none"/>
      <path fill="none" d="M803.5729 89.9993 L813.9797 103.5529 L820.3256 93.3681 Z" clip-path="url(#clipPath2)"/>
      <path fill="none" d="M909.5 170.9819 L909.5 278 L1072.9976 278" clip-path="url(#clipPath2)" stroke="lime"/>
      <path fill="lime" d="M1080.9976 278 L1068.9976 273 L1071.9976 278 L1068.9976 283 Z" clip-path="url(#clipPath2)" stroke="none"/>
      <text x="931.0335" xml:space="preserve" y="269.975" clip-path="url(#clipPath2)" font-family="sans-serif" stroke="none">kbss-csvw:property</text>
      <path fill="none" d="M1240.0093 -135 L1484 -135 L1484 278 L1218.0017 278" clip-path="url(#clipPath2)" stroke="rgb(153,153,153)"/>
      <path fill="rgb(153,153,153)" d="M1210.0017 278 L1222.0017 283 L1219.0017 278 L1222.0017 273 Z" clip-path="url(#clipPath2)" stroke="none"/>
      <text x="1336.4131" y="-141.8457" clip-path="url(#clipPath2)" fill="rgb(153,153,153)" font-family="sans-serif" stroke="none" xml:space="preserve">has-property</text>
    </g>
    <g fill="rgb(210,210,210)" text-rendering="geometricPrecision" shape-rendering="geometricPrecision" transform="matrix(1,0,0,1,-5,162) translate(4,4)" stroke="rgb(210,210,210)">
      <rect x="10" width="452.7324" height="167.4609" y="219.5391" clip-path="url(#clipPath3)" stroke="none"/>
    </g>
    <g fill="rgb(242,240,216)" text-rendering="geometricPrecision" shape-rendering="geometricPrecision" transform="matrix(1,0,0,1,-5,162)" stroke="rgb(242,240,216)">
      <rect x="10" width="452.7324" height="167.4609" y="219.5391" clip-path="url(#clipPath2)" stroke="none"/>
      <rect x="10" y="219.5391" clip-path="url(#clipPath2)" fill="rgb(183,182,158)" width="452.7324" height="21.4609" stroke="none"/>
    </g>
    <g font-size="15px" stroke-linecap="butt" transform="matrix(1,0,0,1,-5,162)" text-rendering="geometricPrecision" font-family="sans-serif" shape-rendering="geometricPrecision" stroke-miterlimit="1.45">
      <text x="405.3687" xml:space="preserve" y="235.4624" clip-path="url(#clipPath2)" stroke="none">Legend</text>
      <rect fill="none" x="10" width="452.7324" height="167.4609" y="219.5391" clip-path="url(#clipPath2)"/>
    </g>
    <g fill="yellow" text-rendering="geometricPrecision" shape-rendering="geometricPrecision" transform="matrix(1,0,0,1,-5,162)" stroke="yellow">
      <rect x="41.7412" y="342" clip-path="url(#clipPath2)" width="234" rx="4" ry="4" height="30" stroke="none"/>
    </g>
    <g text-rendering="geometricPrecision" stroke-miterlimit="1.45" shape-rendering="geometricPrecision" transform="matrix(1,0,0,1,-5,162)" stroke-linecap="butt">
      <rect x="41.7412" y="342" clip-path="url(#clipPath2)" fill="none" width="234" rx="4" ry="4" height="30"/>
      <text x="49.2969" xml:space="preserve" y="361.1543" clip-path="url(#clipPath2)" font-family="sans-serif" stroke="none">Helper entity (not in the RDF model)</text>
    </g>
    <g fill="rgb(255,204,0)" text-rendering="geometricPrecision" shape-rendering="geometricPrecision" transform="matrix(1,0,0,1,-5,162)" stroke="rgb(255,204,0)">
      <rect x="41.7412" y="256" clip-path="url(#clipPath2)" width="93" rx="4" ry="4" height="30" stroke="none"/>
    </g>
    <g text-rendering="geometricPrecision" stroke-miterlimit="1.45" shape-rendering="geometricPrecision" transform="matrix(1,0,0,1,-5,162)" stroke-linecap="butt">
      <rect x="41.7412" y="256" clip-path="url(#clipPath2)" fill="none" width="93" rx="4" ry="4" height="30"/>
      <text x="53.4043" xml:space="preserve" y="275.1543" clip-path="url(#clipPath2)" font-family="sans-serif" stroke="none">CSVW class</text>
    </g>
    <g fill="lime" text-rendering="geometricPrecision" shape-rendering="geometricPrecision" transform="matrix(1,0,0,1,-5,162)" stroke="lime">
      <rect x="41.7412" y="299" clip-path="url(#clipPath2)" width="129" rx="4" ry="4" height="30" stroke="none"/>
    </g>
    <g text-rendering="geometricPrecision" stroke-miterlimit="1.45" shape-rendering="geometricPrecision" transform="matrix(1,0,0,1,-5,162)" stroke-linecap="butt">
      <rect x="41.7412" y="299" clip-path="url(#clipPath2)" fill="none" width="129" rx="4" ry="4" height="30"/>
      <text x="59.3105" xml:space="preserve" y="318.1543" clip-path="url(#clipPath2)" font-family="sans-serif" stroke="none">KBSS extension</text>
    </g>
  </g>
</svg>
