<?xml version="1.0" encoding="UTF-8"?><svg xmlns="http://www.w3.org/2000/svg" xmlns:xlink="http://www.w3.org/1999/xlink" fill-opacity="1" color-rendering="auto" color-interpolation="auto" text-rendering="auto" stroke="black" stroke-linecap="square" width="176" stroke-miterlimit="10" shape-rendering="auto" stroke-opacity="1" fill="black" stroke-dasharray="none" font-weight="normal" stroke-width="1" height="262" font-family="'Dialog'" font-style="normal" stroke-linejoin="miter" font-size="12px" stroke-dashoffset="0" image-rendering="auto">
  <!--Generated by ySVG 2.5-->
  <defs id="genericDefs"/>
  <g>
    <defs id="defs1">
      <clipPath clipPathUnits="userSpaceOnUse" id="clipPath1">
        <path d="M0 0 L176 0 L176 262 L0 262 L0 0 Z"/>
      </clipPath>
      <clipPath clipPathUnits="userSpaceOnUse" id="clipPath2">
        <path d="M304 83 L480 83 L480 345 L304 345 L304 83 Z"/>
      </clipPath>
    </defs>
    <g fill="white" text-rendering="geometricPrecision" shape-rendering="geometricPrecision" transform="translate(-304,-83)" stroke="white">
      <rect x="304" width="176" height="262" y="83" clip-path="url(#clipPath2)" stroke="none"/>
    </g>
    <g fill="yellow" text-rendering="geometricPrecision" shape-rendering="geometricPrecision" transform="matrix(1,0,0,1,-304,-83)" stroke="yellow">
      <rect x="341.749" y="157" clip-path="url(#clipPath2)" width="100.502" rx="4" ry="4" height="30" stroke="none"/>
    </g>
    <g text-rendering="geometricPrecision" stroke-miterlimit="1.45" shape-rendering="geometricPrecision" font-family="sans-serif" transform="matrix(1,0,0,1,-304,-83)" stroke-linecap="butt">
      <text x="348.749" xml:space="preserve" y="176.1543" clip-path="url(#clipPath2)" stroke="none">Bind person id</text>
      <rect x="341.749" y="157" clip-path="url(#clipPath2)" fill="none" width="100.502" rx="4" ry="4" height="30"/>
    </g>
    <g fill="yellow" text-rendering="geometricPrecision" shape-rendering="geometricPrecision" transform="matrix(1,0,0,1,-304,-83)" stroke="yellow">
      <rect x="328.9502" y="237" clip-path="url(#clipPath2)" width="126.5176" rx="4" ry="4" height="30" stroke="none"/>
    </g>
    <g text-rendering="geometricPrecision" stroke-miterlimit="1.45" shape-rendering="geometricPrecision" font-family="sans-serif" transform="matrix(1,0,0,1,-304,-83)" stroke-linecap="butt">
      <text x="335.9502" xml:space="preserve" y="256.1543" clip-path="url(#clipPath2)" stroke="none">Construct greeting</text>
      <rect x="328.9502" y="237" clip-path="url(#clipPath2)" fill="none" width="126.5176" rx="4" ry="4" height="30"/>
    </g>
    <g fill="yellow" text-rendering="geometricPrecision" shape-rendering="geometricPrecision" transform="matrix(1,0,0,1,-304,-83)" stroke="yellow">
      <rect x="304.9297" y="315" clip-path="url(#clipPath2)" width="174.5586" rx="4" ry="4" height="30" stroke="none"/>
    </g>
    <g text-rendering="geometricPrecision" stroke-miterlimit="1.45" shape-rendering="geometricPrecision" font-family="sans-serif" transform="matrix(1,0,0,1,-304,-83)" stroke-linecap="butt">
      <text x="311.9297" xml:space="preserve" y="334.1543" clip-path="url(#clipPath2)" stroke="none">Return greeting statement</text>
      <rect x="304.9297" y="315" clip-path="url(#clipPath2)" fill="none" width="174.5586" rx="4" ry="4" height="30"/>
    </g>
    <g fill="yellow" text-rendering="geometricPrecision" shape-rendering="geometricPrecision" transform="matrix(1,0,0,1,-304,-83)" stroke="yellow">
      <rect x="330.209" y="83" clip-path="url(#clipPath2)" width="123.582" rx="4" ry="4" height="30" stroke="none"/>
    </g>
    <g text-rendering="geometricPrecision" stroke-miterlimit="1.45" shape-rendering="geometricPrecision" font-family="sans-serif" transform="matrix(1,0,0,1,-304,-83)" stroke-linecap="butt">
      <text x="337.209" xml:space="preserve" y="102.1543" clip-path="url(#clipPath2)" stroke="none">Bind person name</text>
      <rect x="330.209" y="83" clip-path="url(#clipPath2)" fill="none" width="123.582" rx="4" ry="4" height="30"/>
      <path fill="none" d="M392.0391 186.9609 L392.1488 228.9788" clip-path="url(#clipPath2)"/>
      <path d="M392.1697 236.9788 L397.1384 224.9657 L392.1462 227.9788 L387.1384 224.9919 Z" clip-path="url(#clipPath2)" stroke="none"/>
      <text x="402.7069" xml:space="preserve" y="215.1543" clip-path="url(#clipPath2)" stroke="none">next</text>
      <path fill="none" d="M392.209 266.9678 L392.209 307.0114" clip-path="url(#clipPath2)"/>
      <path d="M392.209 315.0114 L397.209 303.0114 L392.209 306.0114 L387.209 303.0114 Z" clip-path="url(#clipPath2)" stroke="none"/>
      <text x="401.8248" xml:space="preserve" y="290.7183" clip-path="url(#clipPath2)" stroke="none">next</text>
      <path fill="none" d="M392 112.9951 L392 148.9895" clip-path="url(#clipPath2)"/>
      <path d="M392 156.9895 L397 144.9895 L392 147.9895 L387 144.9895 Z" clip-path="url(#clipPath2)" stroke="none"/>
      <text x="408.6025" xml:space="preserve" y="139.1543" clip-path="url(#clipPath2)" stroke="none">next</text>
    </g>
  </g>
</svg>
