<?xml version="1.0" encoding="UTF-8"?><svg xmlns="http://www.w3.org/2000/svg" xmlns:xlink="http://www.w3.org/1999/xlink" fill-opacity="1" color-rendering="auto" color-interpolation="auto" text-rendering="auto" stroke="black" stroke-linecap="square" width="179" stroke-miterlimit="10" shape-rendering="auto" stroke-opacity="1" fill="black" stroke-dasharray="none" font-weight="normal" stroke-width="1" height="262" font-family="'Dialog'" font-style="normal" stroke-linejoin="miter" font-size="12px" stroke-dashoffset="0" image-rendering="auto">
  <!--Generated by ySVG 2.5-->
  <defs id="genericDefs"/>
  <g>
    <defs id="defs1">
      <clipPath clipPathUnits="userSpaceOnUse" id="clipPath1">
        <path d="M0 0 L179 0 L179 262 L0 262 L0 0 Z"/>
      </clipPath>
      <clipPath clipPathUnits="userSpaceOnUse" id="clipPath2">
        <path d="M303 83 L482 83 L482 345 L303 345 L303 83 Z"/>
      </clipPath>
    </defs>
    <g fill="white" text-rendering="geometricPrecision" shape-rendering="geometricPrecision" transform="translate(-303,-83)" stroke="white">
      <rect x="303" width="179" height="262" y="83" clip-path="url(#clipPath2)" stroke="none"/>
    </g>
    <g fill="yellow" text-rendering="geometricPrecision" shape-rendering="geometricPrecision" transform="matrix(1,0,0,1,-303,-83)" stroke="yellow">
      <rect x="341.749" y="157" clip-path="url(#clipPath2)" width="100.502" rx="4" ry="4" height="30" stroke="none"/>
    </g>
    <g text-rendering="geometricPrecision" stroke-miterlimit="1.45" shape-rendering="geometricPrecision" font-family="sans-serif" transform="matrix(1,0,0,1,-303,-83)" stroke-linecap="butt">
      <text x="348.749" xml:space="preserve" y="176.1543" clip-path="url(#clipPath2)" stroke="none">Bind person id</text>
      <rect x="341.749" y="157" clip-path="url(#clipPath2)" fill="none" width="100.502" rx="4" ry="4" height="30"/>
    </g>
    <g fill="yellow" text-rendering="geometricPrecision" shape-rendering="geometricPrecision" transform="matrix(1,0,0,1,-303,-83)" stroke="yellow">
      <rect x="327.4941" y="237" clip-path="url(#clipPath2)" width="129.4297" rx="4" ry="4" height="30" stroke="none"/>
    </g>
    <g text-rendering="geometricPrecision" stroke-miterlimit="1.45" shape-rendering="geometricPrecision" font-family="sans-serif" transform="matrix(1,0,0,1,-303,-83)" stroke-linecap="butt">
      <text x="334.4941" xml:space="preserve" y="256.1543" clip-path="url(#clipPath2)" stroke="none">Construct greeding</text>
      <rect x="327.4941" y="237" clip-path="url(#clipPath2)" fill="none" width="129.4297" rx="4" ry="4" height="30"/>
    </g>
    <g fill="yellow" text-rendering="geometricPrecision" shape-rendering="geometricPrecision" transform="matrix(1,0,0,1,-303,-83)" stroke="yellow">
      <rect x="303.9678" y="315" clip-path="url(#clipPath2)" width="177.4707" rx="4" ry="4" height="30" stroke="none"/>
    </g>
    <g text-rendering="geometricPrecision" stroke-miterlimit="1.45" shape-rendering="geometricPrecision" font-family="sans-serif" transform="matrix(1,0,0,1,-303,-83)" stroke-linecap="butt">
      <text x="310.9678" xml:space="preserve" y="334.1543" clip-path="url(#clipPath2)" stroke="none">Return greeding statement</text>
      <rect x="303.9678" y="315" clip-path="url(#clipPath2)" fill="none" width="177.4707" rx="4" ry="4" height="30"/>
    </g>
    <g fill="yellow" text-rendering="geometricPrecision" shape-rendering="geometricPrecision" transform="matrix(1,0,0,1,-303,-83)" stroke="yellow">
      <rect x="329.418" y="83" clip-path="url(#clipPath2)" width="123.582" rx="4" ry="4" height="30" stroke="none"/>
    </g>
    <g text-rendering="geometricPrecision" stroke-miterlimit="1.45" shape-rendering="geometricPrecision" font-family="sans-serif" transform="matrix(1,0,0,1,-303,-83)" stroke-linecap="butt">
      <text x="336.418" xml:space="preserve" y="102.1543" clip-path="url(#clipPath2)" stroke="none">Bind person name</text>
      <rect x="329.418" y="83" clip-path="url(#clipPath2)" fill="none" width="123.582" rx="4" ry="4" height="30"/>
      <path fill="none" d="M392.0391 186.9609 L392.1488 228.9788" clip-path="url(#clipPath2)"/>
      <path d="M392.1697 236.9788 L397.1384 224.9657 L392.1462 227.9788 L387.1384 224.9919 Z" clip-path="url(#clipPath2)" stroke="none"/>
      <text x="402.7069" xml:space="preserve" y="215.1543" clip-path="url(#clipPath2)" stroke="none">next</text>
      <path fill="none" d="M392.3038 266.9678 L392.5575 307.0115" clip-path="url(#clipPath2)"/>
      <path d="M392.6082 315.0114 L397.532 302.9799 L392.5511 306.0116 L387.5323 303.0433 Z" clip-path="url(#clipPath2)" stroke="none"/>
      <text x="402.0443" xml:space="preserve" y="290.7183" clip-path="url(#clipPath2)" stroke="none">next</text>
      <path fill="none" d="M391.3693 112.9951 L391.754 148.9899" clip-path="url(#clipPath2)"/>
      <path d="M391.8395 156.9895 L396.711 144.9367 L391.7433 147.99 L386.7115 145.0436 Z" clip-path="url(#clipPath2)" stroke="none"/>
      <text x="408.2087" xml:space="preserve" y="139.1543" clip-path="url(#clipPath2)" stroke="none">next</text>
    </g>
  </g>
</svg>
